HIERARCHY
ROOT K0
{
    OFFSET 0.000000 0.000000 0.000000
	CHANNELS 6 Xposition Yposition Zposition Zrotation Yrotation Xrotation
    JOINT K1
    {
        OFFSET 10.000000 0.000000 0.000000
        CHANNELS 3 Zrotation Yrotation Xrotation
        JOINT K2
        {
            OFFSET 10.000000 10.000000 0.000000
            CHANNELS 3 Zrotation Yrotation Xrotation
            JOINT K3
            {
                OFFSET 0.000000 10.000000 0.000000
                CHANNELS 3 Zrotation Yrotation Xrotation
                JOINT K4
                {
                    OFFSET -5.000000 0.000000 0.000000
                    CHANNELS 3 Zrotation Yrotation Xrotation
                    End Site
                            {
                                OFFSET 0.000000 0.000000 -5.000000
                            }
                }
            }
        }
    }
}
MOTION
Frames: 1
Frame Time: 0.041667
0.000000 1.000000 0.000000 0.000000 8.000000 5.000000 4.000000 6.000000 0.000000 4.000000 0.000000 0.000000 4.000000 10.000000 0.000000 0 0 0
